<?xml version="1.0" encoding="utf-8"?>
<!-- Generator: Adobe Illustrator 15.1.0, SVG Export Plug-In . SVG Version: 6.00 Build 0)  -->
<!DOCTYPE svg PUBLIC "-//W3C//DTD SVG 1.1//EN" "http://www.w3.org/Graphics/SVG/1.1/DTD/svg11.dtd">
<svg xmlns="http://www.w3.org/2000/svg" xmlns:xlink="http://www.w3.org/1999/xlink" version="1.1" id="Ebene_1" x="0px" y="0px" width="595.28px" height="623.623px" viewBox="0 0 595.28 623.623" enable-background="new 0 0 595.28 623.623" xml:space="preserve" style="fill:#000000">
<g>
	
	<path d="M475.716,104.775c-0.612-4.79-2.973-9.036-6.396-12.078c-3.419-3.044-7.964-4.918-12.898-4.917H138.988   c-5.283-0.002-10.154,2.058-13.694,5.485c-3.545,3.415-5.775,8.271-5.768,13.627v0.063l0.011,0.414l0,0   c2.18,149.249,36.609,254.848,74.441,326.186c37.832,71.335,79.025,108.363,94.579,120.705l0.084,0.066l0.087,0.063   c0.437,0.315,0.787,0.561,1.044,0.738c0.262,0.182,0.412,0.281,0.512,0.346l0.002-0.004c2.202,1.46,4.745,2.199,7.279,2.198   c2.55,0.001,5.111-0.743,7.325-2.221l0.027-0.019l0.026-0.018l0.006-0.004c0.115-0.077,0.627-0.427,1.424-0.994l0.097-0.068   l0.094-0.074c15.579-12.361,56.948-49.516,94.883-121.149c37.938-71.643,72.399-177.725,74.306-327.702l0.004-0.324   L475.716,104.775z M128.792,107.146l-0.001-0.031l-0.006-0.244c0.013-2.791,1.119-5.168,2.946-6.951   c1.839-1.776,4.383-2.879,7.256-2.881h317.433c2.585,0.002,4.928,0.966,6.748,2.579c1.753,1.558,2.952,3.691,3.318,6.072   c-0.609,46.332-4.348,88.375-10.334,126.428h-66.302c-3.344,0-6.371-1.361-8.584-3.568c-2.21-2.213-3.571-5.236-3.571-8.574   v-13.928c0-3.338,1.361-6.363,3.573-8.577c2.213-2.208,5.24-3.571,8.582-3.571h26.312c9.394-0.009,17.044-7.65,17.053-17.039   v-24.828c-0.009-9.396-7.659-17.032-17.053-17.042H278.806c-9.389,0.01-17.039,7.646-17.049,17.042v24.828   c0.01,9.388,7.658,17.03,17.049,17.039h26.314c3.343,0,6.37,1.362,8.585,3.571c2.211,2.214,3.571,5.239,3.571,8.577v13.928   c0,3.338-1.36,6.361-3.57,8.574c-2.216,2.207-5.243,3.568-8.586,3.568h-62.394c-9.396,0.01-17.043,7.653-17.053,17.044v25.42   c0.01,9.393,7.658,17.036,17.053,17.046h62.394c3.343,0,6.37,1.362,8.586,3.571c2.21,2.211,3.57,5.233,3.57,8.57v71.023v37.878   c0,2.156,1.768,3.912,3.916,3.912h67.185c2.149,0,3.913,1.763,3.913,3.917v4.885c0,2.148-1.764,3.914-3.913,3.914h-67.185   c-2.148,0-3.916,1.762-3.916,3.908v3.311c0,2.15,1.768,3.908,3.916,3.908h53.31c2.149,0,3.906,1.762,3.906,3.912v5.418   c0,2.154-1.757,3.915-3.906,3.915h-67.601c-2.154,0-3.916-1.761-3.916-3.915v-37.085l-0.005-21.814c0-2.149-1.761-3.91-3.907-3.91   h-3.464c-2.147,0-3.908,1.761-3.908,3.91l0.002,21.814v37.085c0,2.154-1.756,3.915-3.905,3.915h-67.052   c-2.152,0-3.913-1.761-3.913-3.915v-5.418c0-2.15,1.761-3.912,3.913-3.912h52.765c2.149,0,3.911-1.758,3.911-3.908v-3.311   c0-2.146-1.761-3.908-3.911-3.908h-66.581c-2.156,0-3.913-1.766-3.913-3.914v-4.885c0-2.154,1.756-3.917,3.913-3.917h66.581   c2.149,0,3.911-1.756,3.911-3.912l-0.002-21.817c0-2.154-1.761-3.909-3.911-3.909h-91.391   c-28.571-67.642-51.56-159.104-53.325-279.768L128.792,107.146z M413.091,386.942h-23.239c-3.342,0-6.369-1.362-8.584-3.573   c-2.21-2.213-3.571-5.238-3.571-8.578v-71.023c0-3.336,1.361-6.359,3.571-8.57c2.213-2.209,5.242-3.571,8.584-3.571h54.438   C435.535,327.623,424.785,359.279,413.091,386.942z M291.704,506.189v21.429c0,2.151-1.756,3.917-3.905,3.917h-6.463   c-2.154,0-3.913-1.766-3.913-3.917v-21.429c0-2.15-1.761-3.91-3.911-3.91h-18.997c-2.156,0-3.917-1.759-3.917-3.907v-4.886   c0-2.155,1.761-3.914,3.917-3.914h18.997c2.149,0,3.911-1.758,3.911-3.914v-3.31c0-2.15-1.761-3.909-3.911-3.909h-36.806   c-2.149,0-3.911-1.759-3.911-3.913v-5.416c0-2.146,1.762-3.908,3.911-3.908h51.092c2.149,0,3.905,1.763,3.905,3.908V506.189z    M321.192,489.572h19.231c2.149,0,3.916,1.759,3.916,3.914v4.886c0,2.148-1.767,3.907-3.916,3.907h-19.231   c-2.148,0-3.916,1.76-3.916,3.91v21.429c0,2.151-1.756,3.917-3.904,3.917h-6.476c-2.149,0-3.911-1.766-3.911-3.917v-21.429V469.11   c0-2.146,1.762-3.908,3.916-3.908h51.627c2.153,0,3.913,1.763,3.913,3.908v5.416c0,2.154-1.76,3.913-3.913,3.913h-37.336   c-2.148,0-3.916,1.759-3.916,3.909v3.31C317.276,487.814,319.044,489.572,321.192,489.572z"/>
</g>

</svg>
